<svg width="19" height="18" viewBox="0 0 19 18" fill="none" xmlns="http://www.w3.org/2000/svg">
<g clip-path="url(#clip0_1934_83)">
<path d="M0 6.30976C0 10.3519 3.35294 14.3277 8.65001 17.7436C8.84724 17.867 9.129 17.9998 9.32623 17.9998C9.52346 17.9998 9.80521 17.867 10.0119 17.7436C15.2995 14.3277 18.6524 10.3519 18.6524 6.30976C18.6524 2.95078 16.3702 0.578613 13.3272 0.578613C11.5897 0.578613 10.1809 1.41362 9.32623 2.69459C8.49034 1.4231 7.06276 0.578613 5.32525 0.578613C2.28225 0.578613 0 2.95078 0 6.30976ZM1.51211 6.30976C1.51211 3.78578 3.12752 2.10629 5.30647 2.10629C7.07216 2.10629 8.08649 3.21646 8.68757 4.16533C8.94116 4.54487 9.10082 4.64925 9.32623 4.64925C9.55164 4.64925 9.69249 4.53539 9.96486 4.16533C10.613 3.23544 11.5897 2.10629 13.346 2.10629C15.525 2.10629 17.1404 3.78578 17.1404 6.30976C17.1404 9.83959 13.4493 13.6445 9.52346 16.2823C9.52048 16.2844 9.51752 16.2865 9.5146 16.2886C9.4254 16.3518 9.36261 16.3962 9.32623 16.3962C9.28866 16.3962 9.22291 16.3488 9.13839 16.2823C5.20316 13.6445 1.51211 9.83959 1.51211 6.30976Z" fill="white"/>
<path d="M1.51211 6.30976C1.51211 3.78578 3.12752 2.10629 5.30647 2.10629C7.07216 2.10629 8.08649 3.21646 8.68757 4.16533C8.94116 4.54487 9.10082 4.64925 9.32623 4.64925C9.55164 4.64925 9.69249 4.53539 9.96486 4.16533C10.613 3.23544 11.5897 2.10629 13.346 2.10629C15.525 2.10629 17.1404 3.78578 17.1404 6.30976C17.1404 9.83959 13.4493 13.6445 9.52346 16.2823L9.5146 16.2886C9.4254 16.3518 9.36261 16.3962 9.32623 16.3962C9.28866 16.3962 9.22291 16.3488 9.13839 16.2823C5.20316 13.6445 1.51211 9.83959 1.51211 6.30976Z" fill="#5A5A57"/>
</g>
<defs>
<clipPath id="clip0_1934_83">
<rect width="19" height="18" fill="white"/>
</clipPath>
</defs>
</svg>
