<svg width="17" height="19" viewBox="0 0 17 19" fill="none" xmlns="http://www.w3.org/2000/svg">
<path d="M15.8077 15.388C15.6796 16.3774 15.0385 17.233 14.1413 17.6133C13.7016 17.8031 13.2252 17.8607 12.7489 17.8031C12.2913 17.7463 11.8328 17.5938 11.3573 17.3092C10.6982 16.928 10.0383 16.3393 9.26914 15.4642C10.478 13.9233 11.2105 12.5162 11.4854 11.2608C11.6134 10.6712 11.6322 10.1384 11.5767 9.64363C11.5033 9.16841 11.3385 8.73042 11.0824 8.35007C10.5147 7.49449 9.56196 6.99977 8.49995 6.99977C7.43793 6.99977 6.48519 7.51311 5.91748 8.35007C5.66136 8.73042 5.4966 9.16841 5.42318 9.64363C5.34976 10.1384 5.36854 10.6898 5.51453 11.2608C5.78942 12.5162 6.53983 13.9428 7.73075 15.4828C6.97949 16.3579 6.3025 16.9475 5.64258 17.3279C5.16621 17.6133 4.70862 17.7658 4.25104 17.8226C3.77894 17.8776 3.30171 17.8119 2.85949 17.6329C1.96224 17.2525 1.32111 16.396 1.19305 15.4075C1.13841 14.9322 1.17512 14.457 1.35782 13.9242C1.41245 13.7336 1.50465 13.5438 1.596 13.316C1.72406 13.0119 1.8709 12.6882 2.01688 12.3646L2.03566 12.3265C3.29915 9.49202 4.65484 6.60079 6.06517 3.78581L6.11981 3.67144C6.26664 3.38684 6.41263 3.08185 6.55947 2.79636C6.7063 2.49225 6.87107 2.20677 7.07255 1.9594C7.45757 1.5028 7.96979 1.25544 8.53751 1.25544C9.10523 1.25544 9.61831 1.5028 10.0025 1.9594C10.2039 2.20677 10.3687 2.49225 10.5156 2.79636C10.6624 3.08185 10.8084 3.38595 10.9552 3.67056L11.0107 3.78493C12.4022 6.61853 13.7579 9.50975 15.0214 12.3442V12.3629C15.1683 12.667 15.2963 13.0101 15.4423 13.3142C15.5337 13.5429 15.6259 13.7327 15.6805 13.9224C15.8265 14.418 15.8811 14.8932 15.8077 15.388ZM8.49995 14.4934C7.51135 13.1998 6.87022 11.9825 6.64996 10.9558C6.55861 10.5178 6.53983 10.1375 6.59532 9.79524C6.63203 9.49113 6.74216 9.22427 6.88814 8.99641C7.23646 8.48306 7.8221 8.15945 8.49995 8.15945C9.17779 8.15945 9.78222 8.46444 10.1117 8.99641C10.2586 9.22515 10.3679 9.49113 10.4046 9.79524C10.4592 10.1375 10.4413 10.5373 10.3499 10.9558C10.1305 11.9639 9.4894 13.1812 8.49995 14.4934ZM16.7604 13.5048C16.6691 13.2769 16.5769 13.0296 16.4855 12.8203C16.3387 12.4781 16.1927 12.1545 16.0638 11.8504L16.0459 11.8318C14.7824 8.97867 13.4267 6.08745 11.9984 3.23434L11.9438 3.11997C11.797 2.83448 11.651 2.53038 11.5041 2.22627C11.3206 1.88404 11.1379 1.52231 10.8451 1.18007C10.2586 0.418479 9.41598 0 8.51873 0C7.6027 0 6.77887 0.418479 6.17359 1.14106C5.89869 1.48329 5.69722 1.84503 5.51453 2.18726C5.36769 2.49137 5.2217 2.79547 5.07487 3.08096L5.02023 3.19445C3.6099 6.04755 2.23628 8.93878 0.972794 11.7919L0.954866 11.83C0.82681 12.1341 0.679972 12.4577 0.533134 12.8C0.434957 13.0252 0.34361 13.2539 0.258239 13.4844C0.0200544 14.1884 -0.0533646 14.8542 0.0379823 15.5387C0.239458 16.9652 1.15549 18.1639 2.41898 18.6959C2.89535 18.9051 3.38964 19 3.90272 19C4.04956 19 4.23225 18.9814 4.37909 18.9619C4.98352 18.8856 5.60587 18.6773 6.2103 18.3155C6.96156 17.8784 7.67526 17.2507 8.48116 16.3375C9.28707 17.2507 10.0195 17.8784 10.752 18.3155C11.3565 18.6773 11.9788 18.8856 12.5832 18.9619C12.7301 18.9814 12.9128 19 13.0596 19C13.5727 19 14.0849 18.9051 14.5434 18.6959C15.8256 18.163 16.7229 16.9457 16.9243 15.5387C17.0712 14.8737 16.9978 14.2088 16.7604 13.5048Z" fill="#7A7A7A"/>
</svg>
